<svg width="917" height="441" viewBox="0 0 917 441" fill="none" xmlns="http://www.w3.org/2000/svg">
<mask id="mask0_32_70" style="mask-type:luminance" maskUnits="userSpaceOnUse" x="0" y="0" width="917" height="441">
<path d="M916.351 0H0V440.031H916.351V0Z" fill="white"/>
</mask>
<g mask="url(#mask0_32_70)">
<path d="M662.846 347.043H644.346V322.262H622.576V347.043H606.746V364.507H622.576V415.008C622.576 430.578 631.268 437.895 649.768 437.895H662.846V420.43H653.556C646.499 420.43 644.346 418.277 644.346 411.819V364.507H662.846V347.043ZM568.677 440.031C591.127 440.031 607.215 428.847 607.215 411.123C607.215 397.786 598.863 389.871 580.897 386.083L564.549 382.733C556.974 381.098 552.507 377.748 552.507 372.325C552.507 366.126 558.35 361.319 567.9 361.319C577.449 361.319 584.409 367.259 584.587 375.336H604.982C604.464 356.674 589.411 345.052 567.382 345.052C545.353 345.052 530.818 356.317 530.818 373.005C530.818 386.763 539.93 395.633 557.314 399.243L572.804 402.431C580.46 404.066 585.186 407.255 585.186 412.758C585.186 419.216 578.825 423.764 568.321 423.764C557.816 423.764 551.115 418.682 550.16 409.828H528.746C530.122 429.348 546.55 440.015 568.66 440.015M461.591 383.154C463.047 370.156 471.399 362.161 483.959 362.161C496.52 362.161 504.953 370.156 506.328 383.154H461.591ZM484.477 439.934C505.73 439.934 522.579 427.633 526.027 409.828H505.73C503.237 417.565 495.921 422.825 484.995 422.825C470.363 422.825 461.947 412.936 461.429 398.142H527.16V392.202C527.16 364.329 509.776 344.971 483.636 344.971C457.495 344.971 440.193 364.928 440.193 392.542C440.193 420.155 457.22 439.934 484.494 439.934M441.86 347.027H423.359V337.396C423.359 329.999 426.111 327.15 433.508 327.15H441.86V309.686H429.219C411.236 309.686 401.605 318.119 401.605 333.77V347.01H385.258V364.475H401.605V437.862H423.376V364.475H441.876V347.01L441.86 347.027ZM307.776 437.862H329.449V407.497L337.703 398.984L367.469 437.862H393.367L354.229 386.245L391.133 347.01H365.074L329.724 383.834H329.465V309.686H307.792V437.862H307.776ZM254.394 437.862H276.067V386.423C276.067 372.228 284.063 365.09 294.39 365.09C298.695 365.09 303.001 365.527 304.619 365.786V346.509C302.904 346.331 300.492 346.169 297.562 346.169C285.86 346.169 278.9 351.672 275.533 362.08H275.274V347.027H254.362V437.862H254.394ZM203.409 421.773C189.392 421.773 180.522 410.67 180.522 392.525C180.522 374.381 189.473 363.099 203.409 363.099C217.345 363.099 226.198 374.365 226.198 392.525C226.198 410.686 217.345 421.773 203.409 421.773ZM203.409 439.918C230.164 439.918 248.228 420.737 248.228 392.525C248.228 364.313 230.164 344.955 203.409 344.955C176.653 344.955 158.59 364.313 158.59 392.525C158.59 420.737 176.653 439.918 203.409 439.918ZM34.5732 437.846H60.3735L79.8938 363.698C81.7875 356.641 83.4223 348.985 85.2351 340.471C87.048 348.985 88.6827 356.641 90.5765 363.698L110.194 437.846H135.913L170.584 309.67H146.499L129.552 378.751C126.979 389.855 124.567 400.942 122.333 411.948C120.019 400.942 117.51 389.838 114.758 378.751L97.2937 309.67H73.2899L55.6472 378.751C52.8956 389.936 50.403 401.12 48.0722 412.385C45.9195 401.12 43.5078 389.936 40.9342 378.751L23.9876 309.67H0L34.5893 437.846H34.5732Z" fill="#060505"/>
<path d="M271.487 252.323C270.111 248.454 269.431 243.89 269.431 238.726C269.431 220.485 278.382 209.3 292.318 209.3C297.74 209.3 302.386 211.016 306.076 214.205L271.487 252.306V252.323ZM292.302 267.974C286.798 267.974 282.072 266.259 278.366 263.07L313.036 224.952C314.412 228.918 315.108 233.563 315.108 238.71C315.108 256.774 306.238 267.958 292.302 267.958M292.302 286.103C319.057 286.103 337.121 266.922 337.121 238.71C337.121 226.749 333.851 216.341 328.089 208.345L338.076 197.339L328.963 189.084L319.413 199.573C312.097 194.15 302.904 191.14 292.318 191.14C265.563 191.14 247.499 210.498 247.499 238.71C247.499 250.672 250.688 260.982 256.45 268.897L246.463 279.903L255.576 288.158L265.126 277.67C272.442 283.092 281.635 286.103 292.302 286.103ZM198.909 284.031H220.582V232.592C220.582 218.397 228.578 211.259 238.904 211.259C243.21 211.259 247.499 211.696 249.134 211.955V192.677C247.418 192.499 245.006 192.338 242.077 192.338C230.374 192.338 223.414 197.841 220.048 208.248H219.789V193.195H198.876V284.031H198.909ZM127.448 229.322C128.905 216.325 137.257 208.329 149.817 208.329C162.377 208.329 170.81 216.325 172.186 229.322H127.448ZM150.335 286.103C171.587 286.103 188.437 273.801 191.884 255.997H171.587C169.094 263.734 161.778 268.994 150.853 268.994C136.221 268.994 127.804 259.105 127.286 244.311H193.017V238.37C193.017 210.498 175.633 191.14 149.493 191.14C123.353 191.14 106.05 211.097 106.05 238.71C106.05 266.323 123.078 286.103 150.351 286.103M3.62556 284.031H104.707V264.333H31.4006C36.046 258.829 40.6914 253.407 45.0777 247.904L104.011 173.918V155.854H5.84303V175.553H76.6403C72.173 180.635 67.8675 185.782 63.7401 190.865L3.60938 266V284.063L3.62556 284.031Z" fill="#060505"/>
<path d="M850.797 75.5237C852.254 62.5264 860.606 54.5305 873.166 54.5305C885.726 54.5305 894.159 62.5264 895.535 75.5237H850.797ZM873.684 132.304C894.936 132.304 911.786 120.003 915.233 102.198H894.936C892.444 109.935 885.128 115.179 874.202 115.179C859.57 115.179 851.153 105.29 850.635 90.4957H916.35V84.5554C916.35 56.6832 898.966 37.3249 872.826 37.3249C846.686 37.3249 829.383 57.2821 829.383 84.8953C829.383 112.509 846.411 132.288 873.684 132.288M763.183 78.8742C763.183 63.3842 771.696 56.5861 783.059 56.5861C794.422 56.5861 801.381 63.5623 801.381 76.8833V130.216H823.152V73.4357C823.152 50.1279 809.733 37.5676 790.715 37.5676C778.236 37.5676 769.042 43.0709 762.843 53.3166V39.3805H741.51V130.216H763.183V78.858V78.8742ZM690.524 114.143C676.507 114.143 667.637 103.04 667.637 84.8953C667.637 66.7509 676.588 55.4693 690.524 55.4693C704.46 55.4693 713.314 66.7347 713.314 84.8953C713.314 103.056 704.46 114.143 690.524 114.143ZM690.524 132.288C717.279 132.288 735.343 113.107 735.343 84.8953C735.343 56.6832 717.279 37.3249 690.524 37.3249C663.769 37.3249 645.705 56.6832 645.705 84.8953C645.705 113.107 663.769 132.288 690.524 132.288ZM617.445 23.1298H639.813V2.07189H617.445V23.146V23.1298ZM617.784 130.232H639.457V39.3967H617.784V130.248V130.232ZM535.657 130.232H608.785V112.509H562.412V112.25L608.267 55.3074V39.3967H535.657V57.2012H582.289V57.4602L535.657 115.179V130.232ZM483.652 115.6C474.183 115.6 468.081 111.392 468.081 104.254C468.081 95.9989 475.996 92.6322 485.286 91.2564C494.237 89.8806 502.67 88.5048 505.325 86.7891V96.5978C505.325 107.183 497.847 115.616 483.652 115.616M478.31 131.705C493.104 131.705 500.76 125.506 505.066 117.429H505.405V130.248H526.739V68.3047C526.739 49.3834 512.721 37.6 489.058 37.6C465.394 37.6 450.519 49.5614 449.483 67.6249H470.379C470.978 59.969 478.035 54.4658 488.621 54.4658C499.206 54.4658 505.227 59.969 505.227 67.7059V68.4019C505.227 74.6011 499.465 74.86 482.599 76.7376C463.84 78.7123 446.893 83.7947 446.893 104.432C446.893 122.576 460.231 131.705 478.294 131.705M398.416 130.248H420.089V78.8094C420.089 64.6143 428.085 57.4763 438.412 57.4763C442.717 57.4763 447.023 57.9134 448.658 58.1723V38.9111C446.942 38.733 444.53 38.5712 441.6 38.5712C429.898 38.5712 422.938 44.0744 419.571 54.482H419.312V39.429H398.416V130.265V130.248ZM326.956 75.5398C328.412 62.5425 336.764 54.5467 349.325 54.5467C361.885 54.5467 370.318 62.5425 371.693 75.5398H326.956ZM349.842 132.32C371.095 132.32 387.944 120.019 391.392 102.214H371.095C368.602 109.951 361.286 115.195 350.36 115.195C335.745 115.195 327.312 105.306 326.794 90.5118H392.509V84.5716C392.509 56.6994 375.125 37.341 348.985 37.341C322.844 37.341 305.542 57.2983 305.542 84.9115C305.542 112.525 322.569 132.304 349.842 132.304M239.341 78.8903C239.341 63.4004 247.855 56.6023 259.217 56.6023C270.58 56.6023 277.54 63.5784 277.54 76.8995V130.232H299.31V73.4519C299.31 50.1441 285.892 37.5838 266.873 37.5838C254.394 37.5838 245.2 43.0871 239.001 53.3328V39.3967H217.668V130.232H239.341V78.8742V78.8903ZM146.207 75.5398C147.664 62.5425 156.016 54.5467 168.576 54.5467C181.136 54.5467 189.569 62.5425 190.945 75.5398H146.207ZM169.094 132.32C190.346 132.32 207.196 120.019 210.643 102.214H190.346C187.854 109.951 180.538 115.195 169.612 115.195C154.98 115.195 146.563 105.306 146.045 90.5118H211.776V84.5716C211.776 56.6994 194.393 37.341 168.252 37.341C142.112 37.341 124.809 57.2983 124.809 84.9115C124.809 112.525 141.837 132.304 169.11 132.304M65.229 132.304C97.5685 132.304 121.232 110.194 121.232 78.9713V63.4813H69.0165V81.4639H98.7824C98.6044 99.6083 84.6683 111.926 65.7469 111.926C42.6981 111.926 27.9851 93.9433 27.9851 66.2491C27.9851 38.555 42.601 20.3944 65.5851 20.3944C82.0138 20.3944 94.0561 30.1221 97.2448 44.56H120.391C116.652 18.0636 93.6029 9.15527e-05 64.9538 9.15527e-05C30.5425 9.15527e-05 5.08203 25.9785 5.08203 66.2329C5.08203 106.487 29.6847 132.304 65.2128 132.304" fill="#060505"/>
</g>
</svg>
